<?xml version="1.0" encoding="UTF-8"?>
<svg width="1200pt" height="1200pt" version="1.1" viewBox="0 0 1200 1200" xmlns="http://www.w3.org/2000/svg">
 <path d="m19.508 6.3086c-10.871 0-19.508 8.6367-19.508 19.508v344.54c0 10.871 8.7852 19.508 19.508 19.508h344.25c10.723 0 19.508-8.6367 19.508-19.508v-344.54c0-10.871-8.7852-19.508-19.508-19.508zm816.45 0c-10.723 0-19.508 8.6367-19.508 19.508v344.54c0 10.871 8.7852 19.508 19.508 19.508h344.25c10.723 0 19.793-8.6367 19.793-19.508v-344.54c0-10.871-9.0742-19.508-19.793-19.508zm-390.15 19.508v116.18h115.32v115.04h-115.32v232.08h-115.61v76.598h-194.79v-115.04h-115.9v115.9h115.04v213.72h116.18v-98.398h107.58v-76.594h87.785v-116.18h115.9v58.238h230.65v288.31h-114.75v-114.18h-115.32v-115.61h-116.18v115.9h115.61v114.46h-114.75v337.94h115.9v-111.02h114.75v-111.59h116.18v-114.75h114.46v-172.7h115.61v115.61h156.06v-116.18h-155.48v-115.61h-115.9v-0.58594h-114.75v-116.18h-232.08v-174.13h199.38v-116.18h-199.38v-115.04h-116.18zm-406.79 19.793h305.23v305.23h-305.23zm816.45 0h305.23v305.23h-305.23zm-772.55 43.891v217.16h217.45v-217.16zm816.73 0v217.16h217.16v-217.16zm124.79 341.67v116.18h115.9v-116.18zm-1004.9 379.25c-10.871 0-19.508 8.6367-19.508 19.508v344.25c0 10.723 8.7852 19.508 19.508 19.508h344.25c10.723 0 19.508-8.7852 19.508-19.508v-344.25c0-10.723-8.7852-19.508-19.508-19.508zm543.91 26.969h114.75v109.87h-114.75zm-524.41 12.043h305.23v305.23h-305.23zm802.39 39.59v116.18h108.73v174.13h230.07v-116.18h-113.89v-173.56h-108.73v-0.58594h-116.18zm-758.5 4.3047v217.45h217.45v-217.45zm595.27 169.83v116.18h115.9v-116.18z" fill="#00a3d2"/>
</svg>
