<?xml version="1.0" encoding="UTF-8" standalone="no"?>
<svg
   inkscape:version="1.1.2 (0a00cf5339, 2022-02-04, custom)"
   sodipodi:docname="qrstorage.svg"
   id="svg12"
   xml:space="preserve"
   viewBox="0 0 489.13477 91.900406"
   y="0px"
   x="0px"
   version="1.1"
   fill="#00a3d3"
   width="489.13477"
   height="91.900406"
   xmlns:inkscape="http://www.inkscape.org/namespaces/inkscape"
   xmlns:sodipodi="http://sodipodi.sourceforge.net/DTD/sodipodi-0.dtd"
   xmlns="http://www.w3.org/2000/svg"
   xmlns:svg="http://www.w3.org/2000/svg"
   xmlns:rdf="http://www.w3.org/1999/02/22-rdf-syntax-ns#"
   xmlns:cc="http://creativecommons.org/ns#"
   xmlns:dc="http://purl.org/dc/elements/1.1/"><g
     aria-label="Mindmapper"
     id="text13352"
     style="font-size:71.1261px;line-height:1.25;letter-spacing:0px;word-spacing:0px;fill:#000000;stroke-width:3.81032"
     transform="translate(-2.1482334,4.0616751)" /><sodipodi:namedview
     inkscape:document-rotation="0"
     pagecolor="#ffffff"
     bordercolor="#666666"
     borderopacity="1"
     objecttolerance="10"
     gridtolerance="10"
     guidetolerance="10"
     inkscape:pageopacity="0"
     inkscape:pageshadow="2"
     inkscape:window-width="960"
     inkscape:window-height="1013"
     id="namedview10"
     showgrid="false"
     inkscape:zoom="0.89571167"
     inkscape:cx="404.14791"
     inkscape:cy="44.099012"
     inkscape:window-x="0"
     inkscape:window-y="38"
     inkscape:window-maximized="0"
     inkscape:current-layer="g31597"
     inkscape:pagecheckerboard="0" /><metadata
     id="metadata18"><rdf:RDF><cc:Work
         rdf:about=""><dc:format>image/svg+xml</dc:format><dc:type
           rdf:resource="http://purl.org/dc/dcmitype/StillImage" /></cc:Work></rdf:RDF></metadata><defs
     id="defs16"><rect
       x="82.353004"
       y="-173.74661"
       width="194.53601"
       height="91.477127"
       id="rect8699" /><rect
       x="98.075485"
       y="-128.74561"
       width="357.67181"
       height="63.396168"
       id="rect21756" /><rect
       x="48.933479"
       y="-147.54729"
       width="428.06354"
       height="72.858696"
       id="rect16910" /><rect
       x="82.83165"
       y="-116.96103"
       width="401.66907"
       height="81.458549"
       id="rect1940" /><rect
       x="101.00043"
       y="16.561638"
       width="350.64413"
       height="71.003944"
       id="rect9408" /><rect
       x="105.61219"
       y="9.0322132"
       width="208.49744"
       height="85.73774"
       id="rect837" /></defs><text
     xml:space="preserve"
     id="text835"
     style="font-style:normal;font-weight:normal;font-size:40px;line-height:1.25;font-family:sans-serif;letter-spacing:0px;word-spacing:0px;white-space:pre;shape-inside:url(#rect837);fill:#000000;fill-opacity:1;stroke:none"
     transform="translate(-2.9692065,-5.9107831)" /><g
     id="g31597"
     transform="translate(-2.1482334,4.0616751)"><g
       id="g16737"><g
         aria-label="Mappermind"
         transform="matrix(3.7234121,0,0,3.7234121,-264.42999,490.74398)"
         id="text21754"
         style="font-size:18.6667px;line-height:1.25;letter-spacing:0px;word-spacing:0px;white-space:pre;shape-inside:url(#rect21756)"><g
           aria-label="TeamMapper"
           id="text1288"
           style="font-size:18.3753px;stroke-width:0.984389"><g
             aria-label="QRStorage"
             id="text2213"
             style="font-size:5.01333px;font-family:'Fira Sans';-inkscape-font-specification:'Fira Sans';fill:#000000;stroke-width:0.264378"
             transform="matrix(4.3969319,0,0,4.3969319,-402.93363,584.35486)"><path
               d="m 116.74375,-158.77395 q 0.27574,0 0.50134,0.0852 0.2256,0.0802 0.43616,0.2256 l -0.31083,0.40106 q -0.3008,-0.2657 -0.57152,-0.36597 -0.27072,-0.10027 -0.73195,-0.10027 -0.43114,0 -0.75701,-0.20053 -0.32586,-0.20555 -0.51136,-0.6016 -0.18048,-0.40107 -0.18048,-0.96757 0,-0.55648 0.18048,-0.96256 0.1855,-0.40608 0.51638,-0.61664 0.33087,-0.21557 0.76202,-0.21557 0.43616,0 0.76203,0.21056 0.33088,0.20554 0.51136,0.60661 0.18549,0.40106 0.18549,0.97258 0,0.60662 -0.20053,0.96758 -0.20054,0.35594 -0.59158,0.56149 z m -1.6193,-1.52405 q 0,0.7169 0.25067,1.0528 0.25567,0.33589 0.70186,0.33589 0.95253,0 0.95253,-1.39371 0,-1.39871 -0.95253,-1.39871 -0.4512,0 -0.70186,0.3409 -0.25067,0.34091 -0.25067,1.06283 z"
               id="path13311" /><path
               d="m 119.32061,-160.04232 h -0.53643 v 1.46389 h -0.47627 v -3.45418 h 0.90742 q 0.64672,0 0.9776,0.24565 0.33589,0.24565 0.33589,0.73194 0,0.36096 -0.18549,0.58656 -0.1855,0.2256 -0.5615,0.34091 l 0.93248,1.54912 h -0.5665 z m -0.0551,-0.36598 q 0.376,0 0.56651,-0.1504 0.1905,-0.15541 0.1905,-0.49632 0,-0.32085 -0.19552,-0.46122 -0.1905,-0.14539 -0.61664,-0.14539 h -0.42613 v 1.25333 z"
               id="path13313" /><path
               d="m 122.15815,-162.09277 q 0.34592,0 0.59157,0.10026 0.24565,0.0953 0.47627,0.3008 l -0.2607,0.29078 q -0.19552,-0.15542 -0.38602,-0.2256 -0.1855,-0.0752 -0.40107,-0.0752 -0.27072,0 -0.44618,0.12533 -0.17547,0.12533 -0.17547,0.36597 0,0.1504 0.0602,0.25568 0.0602,0.10027 0.22059,0.18549 0.16544,0.0852 0.47626,0.18048 0.32587,0.10027 0.54144,0.21558 0.21557,0.1153 0.34592,0.32085 0.13536,0.20053 0.13536,0.51136 0,0.3008 -0.1504,0.53141 -0.14539,0.23062 -0.42613,0.36096 -0.27574,0.13035 -0.65675,0.13035 -0.7169,0 -1.17312,-0.44619 l 0.2607,-0.29077 q 0.21056,0.17045 0.42613,0.26069 0.21557,0.0852 0.48128,0.0852 0.32085,0 0.53141,-0.15541 0.21056,-0.16043 0.21056,-0.46123 0,-0.17045 -0.0652,-0.28075 -0.0652,-0.1153 -0.2256,-0.20554 -0.15542,-0.0902 -0.45621,-0.18048 -0.53142,-0.16043 -0.77707,-0.38603 -0.24565,-0.2256 -0.24565,-0.61163 0,-0.26069 0.13536,-0.46623 0.14037,-0.20555 0.38602,-0.32086 0.25067,-0.1153 0.56651,-0.1153 z"
               id="path13315" /><path
               d="m 125.34663,-158.69875 q -0.2607,0.18048 -0.59158,0.18048 -0.33589,0 -0.5264,-0.19051 -0.18549,-0.19552 -0.18549,-0.56149 v -1.59424 h -0.46123 v -0.35595 h 0.46123 v -0.59658 l 0.46123,-0.0551 v 0.65173 h 0.62666 l -0.0501,0.35595 h -0.57653 v 1.57419 q 0,0.20554 0.0702,0.3008 0.0752,0.0902 0.24566,0.0902 0.15541,0 0.35093,-0.10528 z"
               id="path13317" /><path
               d="m 126.74034,-161.28062 q 0.55648,0 0.86229,0.37099 0.31082,0.37099 0.31082,1.00768 0,0.41109 -0.14037,0.72693 -0.14037,0.31083 -0.40608,0.4863 -0.2657,0.17045 -0.63168,0.17045 -0.55648,0 -0.8673,-0.37099 -0.31083,-0.37098 -0.31083,-1.00768 0,-0.41109 0.14037,-0.72192 0.14038,-0.31584 0.40608,-0.48629 0.26571,-0.17547 0.6367,-0.17547 z m 0,0.37099 q -0.68683,0 -0.68683,1.01269 0,1.00768 0.68181,1.00768 0.68182,0 0.68182,-1.01269 0,-1.00768 -0.6768,-1.00768 z"
               id="path13319" /><path
               d="m 129.80849,-161.28062 q 0.14038,0 0.2607,0.0301 l -0.0852,0.4512 q -0.12032,-0.0301 -0.23061,-0.0301 -0.24566,0 -0.39606,0.18048 -0.1504,0.18048 -0.23562,0.5615 v 1.50901 h -0.46123 v -2.64203 h 0.39605 l 0.0451,0.53643 q 0.10528,-0.29579 0.28576,-0.44619 0.18048,-0.1504 0.42112,-0.1504 z"
               id="path13321" /><path
               d="m 132.24998,-159.19507 q 0,0.16043 0.0551,0.24064 0.0551,0.0752 0.16544,0.11531 l -0.10528,0.32085 q -0.20555,-0.0251 -0.33088,-0.11531 -0.12534,-0.0902 -0.1855,-0.28074 -0.2657,0.39605 -0.78709,0.39605 -0.39104,0 -0.61664,-0.22059 -0.2256,-0.22058 -0.2256,-0.57653 0,-0.42112 0.3008,-0.64672 0.30581,-0.2256 0.86229,-0.2256 h 0.40608 v -0.19552 q 0,-0.28075 -0.13536,-0.40107 -0.13536,-0.12032 -0.4161,-0.12032 -0.29078,0 -0.7119,0.14038 l -0.1153,-0.3359 q 0.4913,-0.18048 0.91242,-0.18048 0.46624,0 0.69686,0.23062 0.23061,0.2256 0.23061,0.64672 z m -1.08288,0.33088 q 0.39605,0 0.62165,-0.41109 v -0.60662 h -0.34592 q -0.73194,0 -0.73194,0.54144 0,0.23563 0.1153,0.35595 0.11531,0.12032 0.34091,0.12032 z"
               id="path13323" /><path
               d="m 135.32816,-161.10014 q -0.1504,0.0501 -0.33088,0.0652 -0.18048,0.015 -0.44117,0.015 0.46624,0.21056 0.46624,0.66677 0,0.39605 -0.27072,0.64672 -0.27072,0.25067 -0.73696,0.25067 -0.18048,0 -0.33589,-0.0501 -0.0602,0.0401 -0.0953,0.1103 -0.0351,0.0652 -0.0351,0.13536 0,0.21557 0.34592,0.21557 h 0.42112 q 0.2657,0 0.47125,0.0952 0.20555,0.0953 0.31584,0.2607 0.11531,0.16544 0.11531,0.376 0,0.38602 -0.31584,0.59157 -0.31584,0.21056 -0.92245,0.21056 -0.42614,0 -0.6768,-0.0902 -0.24566,-0.0852 -0.35094,-0.26069 -0.10528,-0.17547 -0.10528,-0.4512 h 0.41611 q 0,0.16042 0.0602,0.25066 0.0602,0.0953 0.21557,0.14038 0.15542,0.0501 0.44118,0.0501 0.4161,0 0.59157,-0.10528 0.18048,-0.10027 0.18048,-0.30581 0,-0.1855 -0.14038,-0.28075 -0.14037,-0.0952 -0.39103,-0.0952 h -0.41611 q -0.33589,0 -0.51136,-0.14038 -0.17045,-0.14538 -0.17045,-0.36096 0,-0.13034 0.0752,-0.25066 0.0752,-0.12032 0.21557,-0.21558 -0.23061,-0.12032 -0.34091,-0.29578 -0.10528,-0.18048 -0.10528,-0.43616 0,-0.26571 0.13035,-0.47627 0.13536,-0.21056 0.36597,-0.32587 0.23563,-0.12032 0.52139,-0.12032 0.31083,0.005 0.52139,-0.02 0.21055,-0.0301 0.34591,-0.0752 0.14038,-0.0501 0.34091,-0.14037 z m -1.34357,0.1504 q -0.26069,0 -0.40608,0.16544 -0.14037,0.16043 -0.14037,0.42614 0,0.27072 0.14538,0.43616 0.14539,0.16042 0.4111,0.16042 0.27072,0 0.41109,-0.15541 0.14538,-0.16043 0.14538,-0.44619 0,-0.58656 -0.5665,-0.58656 z"
               id="path13325" /><path
               d="m 137.79973,-159.97715 q 0,0.11531 -0.01,0.23563 h -1.68448 q 0.0301,0.43616 0.22059,0.6417 0.1905,0.20555 0.4913,0.20555 0.19051,0 0.35094,-0.0551 0.16042,-0.0551 0.33589,-0.17546 l 0.20053,0.27573 q -0.42112,0.33088 -0.92245,0.33088 -0.55147,0 -0.86229,-0.36096 -0.30582,-0.36096 -0.30582,-0.99264 0,-0.41109 0.13035,-0.72693 0.13536,-0.32086 0.38101,-0.50134 0.25067,-0.18048 0.58656,-0.18048 0.5264,0 0.80715,0.34592 0.28074,0.34592 0.28074,0.95755 z m -0.45621,-0.13536 q 0,-0.39104 -0.15541,-0.59659 -0.15541,-0.20554 -0.46624,-0.20554 -0.56651,0 -0.61664,0.83221 h 1.23829 z"
               id="path13327" /></g><text
             xml:space="preserve"
             transform="matrix(0.26857086,0,0,0.26857086,75.357377,-130.9778)"
             id="text8697"
             style="font-size:18.6667px;line-height:1.25;font-family:'Fira Sans';-inkscape-font-specification:'Fira Sans';letter-spacing:0px;word-spacing:0px;white-space:pre;shape-inside:url(#rect8699)" /></g></g><g
         style="fill:#00a3d3"
         id="g16719"
         transform="matrix(1.0383182,0,0,1.0383182,-4.4009693,-12.283036)"><path
           id="path2"
           fill="#00a3d3"
           d="m 7.7280847,7.917959 c -0.7915013,0 -1.4205744,0.6121845 -1.4205744,1.382818 v 24.42157 c 0,0.770431 0.6396981,1.382711 1.4205744,1.382711 H 32.796606 c 0.780877,0 1.420575,-0.612185 1.420575,-1.382711 V 9.300777 c 0,-0.7704314 -0.639698,-1.382818 -1.420575,-1.382818 z m 59.4543113,0 c -0.780754,0 -1.420574,0.6121845 -1.420574,1.382818 v 24.42157 c 0,0.770431 0.63982,1.382711 1.420574,1.382711 H 92.25104 c 0.780754,0 1.441458,-0.612185 1.441458,-1.382711 V 9.300777 c 0,-0.7704314 -0.660704,-1.382818 -1.441458,-1.382818 z M 38.771397,9.300777 v 8.235366 h 8.3979 v 8.154162 h -8.3979 v 8.235366 8.215074 h -8.418906 v 5.429337 h -5.786716 -0.626631 -7.77127 V 39.416026 H 7.7280847 v 8.215062 h 8.3771393 v 6.933966 1.240394 6.974775 h 8.460673 v -6.974775 h 7.833921 v -5.42923 h 6.392462 v -8.235473 h 8.43979 v 4.127936 H 64.027993 V 66.704728 H 55.671738 V 58.61168 h -8.397901 v -8.194759 h -8.460673 v 8.215062 h 8.418906 v 8.11346 h -8.356255 v 23.95389 h 8.43979 v -7.86942 h 8.356133 v -7.910111 h 8.460673 v -8.133763 h 8.335372 V 54.54475 h 8.418784 v 8.194771 H 92.25104 V 54.504047 H 80.928457 v -8.194758 h -8.43979 v -0.04161 H 64.132411 V 38.032317 H 47.23207 v -4.107525 -8.235473 h 6.058203 2.318814 6.141859 V 17.453953 H 55.609087 53.290273 47.23207 V 9.2997903 H 38.771397 Z M 9.1486591,10.703792 H 31.376154 V 32.339636 H 9.1486591 Z m 59.4543119,0 H 90.830466 V 32.339636 H 68.602971 Z M 12.344829,13.814975 V 29.208149 H 28.179862 V 13.814975 Z m 59.475318,0 V 29.208149 H 87.634173 V 13.814975 Z m 9.087304,24.218233 v 8.235473 h 8.43979 V 38.033208 Z M 7.7280847,64.915249 c -0.7915013,0 -1.4205744,0.612185 -1.4205744,1.382818 v 24.401266 c 0,0.760018 0.6396981,1.382711 1.4205744,1.382711 H 32.796606 c 0.780877,0 1.420575,-0.622586 1.420575,-1.382711 V 66.298067 c 0,-0.760018 -0.639698,-1.382818 -1.420575,-1.382818 z m 39.6084033,1.911505 h 8.356134 v 7.78799 H 47.336488 Z M 9.1486591,67.680469 H 31.376154 V 89.316206 H 9.1486591 Z m 58.4306479,2.806137 v 8.235366 h 7.917577 V 91.06497 h 8.314366 0.146186 8.293604 V 82.829604 H 83.957436 V 70.527202 h -7.917455 v -0.04161 H 67.579307 Z M 12.344829,70.791652 V 86.20513 H 28.179862 V 70.791652 Z m 43.347793,12.037952 v 8.235473 h 8.439789 v -8.235473 z"
           style="stroke-width:1.2049" /></g></g><text
       xml:space="preserve"
       id="text1938"
       style="font-style:normal;font-variant:normal;font-weight:normal;font-stretch:normal;font-size:18.6667px;line-height:1.25;font-family:'Fira Sans';-inkscape-font-specification:'Fira Sans';letter-spacing:0px;word-spacing:0px;white-space:pre;shape-inside:url(#rect1940)" /><text
       xml:space="preserve"
       style="font-style:normal;font-variant:normal;font-weight:normal;font-stretch:normal;font-size:18.6667px;line-height:1.25;font-family:'Fira Sans';-inkscape-font-specification:'Fira Sans';letter-spacing:0px;word-spacing:0px;fill:#000000"
       x="118.44115"
       y="-96.540749"
       id="text4696"><tspan
         sodipodi:role="line"
         id="tspan4694"
         x="118.44115"
         y="-96.540749" /></text><text
       xml:space="preserve"
       id="text16908"
       style="font-size:18.6667px;line-height:1.25;font-family:sans-serif;letter-spacing:0px;word-spacing:0px;white-space:pre;shape-inside:url(#rect16910)" /></g><text
     xml:space="preserve"
     id="text9406"
     style="font-size:18.6667px;line-height:1.25;font-family:sans-serif;letter-spacing:0px;word-spacing:0px;white-space:pre;shape-inside:url(#rect9408)"
     transform="translate(-2.1482334,4.0616751)" /></svg>
