<svg width="272" height="272" viewBox="0 0 272 272" fill="none" xmlns="http://www.w3.org/2000/svg">
<path d="M21.0203 21.5371C18.8674 21.5371 17.1564 23.2022 17.1564 25.2983V91.7251C17.1564 93.8206 18.8963 95.486 21.0203 95.486H89.2066C91.3306 95.486 93.0706 93.8209 93.0706 91.7251V25.2983C93.0706 23.2028 91.3306 21.5371 89.2066 21.5371H21.0203ZM182.736 21.5371C180.612 21.5371 178.872 23.2022 178.872 25.2983V91.7251C178.872 93.8206 180.612 95.486 182.736 95.486H250.923C253.046 95.486 254.843 93.8209 254.843 91.7251V25.2983C254.843 23.2028 253.046 21.5371 250.923 21.5371H182.736ZM105.458 25.2983V47.6986H128.3V69.8778H105.458V92.278V114.623H82.5587V129.391H66.8188H65.1144H43.9765V107.212H21.0203V129.557H43.8061V148.417V151.791V170.762H66.8191V151.791H88.1274V137.024H105.515V114.623H128.471V125.851H174.156V181.437H151.427V159.424H128.585V137.134H105.572V159.479H128.471V181.548H105.742V246.702H128.698V225.298H151.427V203.782H174.44V181.658H197.112V148.362H220.011V170.652H250.923V148.251H220.125V125.961H197.169V125.848H174.44V103.448H128.471V92.2757V69.8753H144.949H151.257H167.962V47.475H151.257H144.949H128.471V25.2957H105.458V25.2983ZM24.8842 29.1145H85.3431V87.9641H24.8842V29.1145ZM186.6 29.1145H247.059V87.9641H186.6V29.1145ZM33.5778 37.577V79.4464H76.6491V37.577H33.5778ZM195.351 37.577V79.4464H238.365V37.577H195.351ZM220.068 103.451V125.851H243.024V103.451H220.068ZM21.0203 176.57C18.8674 176.57 17.1564 178.235 17.1564 180.331V246.702C17.1564 248.77 18.8963 250.463 21.0203 250.463H89.2066C91.3306 250.463 93.0706 248.77 93.0706 246.702V180.331C93.0706 178.264 91.3306 176.57 89.2066 176.57H21.0203ZM128.755 181.769H151.484V202.952H128.755V181.769ZM24.8842 184.091H85.3431V242.94H24.8842V184.091ZM183.816 191.724V214.124H205.351V247.697H227.966H228.364H250.923V225.297H228.364V191.834H206.829V191.721H183.816V191.724ZM33.5778 192.554V234.478H76.6491V192.554H33.5778ZM151.484 225.297V247.697H174.44V225.297H151.484Z" fill="white" fill-opacity="0.63"/>
</svg>
