<?xml version="1.0" standalone="no"?>
<!DOCTYPE svg PUBLIC "-//W3C//DTD SVG 20010904//EN"
 "http://www.w3.org/TR/2001/REC-SVG-20010904/DTD/svg10.dtd">
<svg version="1.0" xmlns="http://www.w3.org/2000/svg"
 width="72.000000pt" height="72.000000pt" viewBox="0 0 72.000000 72.000000"
 preserveAspectRatio="xMidYMid meet">
<metadata>
Created by potrace 1.14, written by Peter Selinger 2001-2017
</metadata>
<g transform="translate(0.000000,72.000000) scale(0.100000,-0.100000)"
fill="#000000" stroke="none">
<path d="M96 711 c-2 -3 -4 -62 -3 -130 l0 -124 64 -62 c72 -72 65 -82 63 90
l-1 100 -60 59 c-33 32 -57 61 -54 64 3 3 62 -52 131 -122 l126 -129 124 124
c68 68 124 127 124 130 0 8 -509 9 -514 0z"/>
<path d="M499 580 l-127 -128 129 -129 129 -129 0 258 c0 142 -1 258 -2 257
-2 0 -60 -58 -129 -129z"/>
<path d="M304 386 c-27 -28 -54 -57 -57 -64 -5 -7 17 -36 54 -73 l61 -61 64
63 c35 35 64 59 64 54 0 -5 -25 -35 -55 -65 l-56 -56 116 0 c63 1 115 3 115 6
0 7 -244 250 -250 249 -3 0 -28 -24 -56 -53z"/>
<path d="M93 310 c0 -66 3 -120 6 -121 24 -4 241 -3 241 1 0 7 -235 240 -242
240 -3 0 -5 -54 -5 -120z"/>
<path d="M124 172 l-31 -3 -1 -86 0 -86 84 84 c47 46 79 85 72 86 -34 5 -96 8
-124 5z"/>
</g>
</svg>
